<svg xmlns="http://www.w3.org/2000/svg" xmlns:xlink="http://www.w3.org/1999/xlink" viewBox="0 0 201.28 150.82">
  <!-- 스타일 정의 -->
  <defs>
    <style>
      .cls-1{fill:#005bac;}
      .cls-2{fill:url(#GradientFill_3);}
      .cls-3{fill:#ed6c00;}
      .cls-4{fill:#6fba2c;}
      .cls-5{fill:url(#GradientFill_4);}
    </style>

    <!-- 그라디언트 정의 -->
    <radialGradient id="GradientFill_3" cx="90.38" cy="75.66" r="40" gradientUnits="userSpaceOnUse">
      <stop offset="0" stop-color="#7ecef4"/>
      <stop offset="0.19" stop-color="#7ecef4"/>
      <stop offset="0.71" stop-color="#2990d0"/>
      <stop offset="1" stop-color="#005bac"/>
    </radialGradient>

    <radialGradient id="GradientFill_4" cx="110.95" cy="105.53" r="31.41" gradientUnits="userSpaceOnUse">
      <stop offset="0" stop-color="#efec64"/>
      <stop offset="0.19" stop-color="#efec64"/>
      <stop offset="0.55" stop-color="#b7d342"/>
      <stop offset="1" stop-color="#6fba2c"/>
    </radialGradient>
  </defs>

  <title>자산 1</title>
  
  <!-- 메인 레이어 -->
  <g id="레이어_2" data-name="레이어 2">
  <g xmlns="http://www.w3.org/2000/svg" id="레이어_1-2" data-name="레이어 1">
 <path class="cls-1" d="M145.47,48.63c-3.25-1.25-6.67-2-10-3.06-1.93-.61-3.87-1.24-5.82-1.81-.1-.55-.18-1.1-.27-1.61-.51-2.86-1-5.74-1.43-8.6s-1-5.85-1.69-8.74a22.82,22.82,0,0,0-2.13-6.26c-.5-.83-1.21-1.66-2.24-1.37s-2.06,1.49-2.81,2.3a24.75,24.75,0,0,0-2.4,3c-1.82,2.66-3.65,5.43-5.66,8a55.21,55.21,0,0,1,23.35,34.24l.93-.47c3.64-1.91,7.13-4.12,10.9-5.76a20.32,20.32,0,0,0,3.88-2.07A3.08,3.08,0,0,0,151.63,54C151.67,50.87,147.82,49.53,145.47,48.63Z"/>
  <path class="cls-2" d="M126.11,45.44A54.76,54.76,0,0,0,111,30.51,38.34,38.34,0,0,1,104.9,37c-3.33-.88-6.65-1.82-9.94-2.89a39.3,39.3,0,0,1-5.7-2.17A40.34,40.34,0,0,0,85.09,30,6.67,6.67,0,0,0,81,29.42a2.57,2.57,0,0,0-1.59,2.81c1.38,13,9.75,28.14,9.75,28.14-2.32,3.24-4.9,6.26-7.23,9.5a33.24,33.24,0,0,0-3.46,5.91A4.89,4.89,0,0,0,78.13,79c.69,2.3,4.59,1.62,6.26,1.43,5.19-.63,10.32-1.8,15.44-2.87l2.81-.6s7.78,8.68,17,12.68c0,0,4.4,2.13,6.35,1.2,1.6-.76,1.29-3.45,1.56-5.21.31-2,.44-4,.67-5.93.27-2.29.59-4.58.8-6.88.18-1.92.37-3.85.71-5.75,1.56-.77,3.1-1.56,4.64-2.36A56.07,56.07,0,0,0,126.11,45.44Z"/>
  <path class="cls-1" d="M79.2,52.81c-7.89-13.2-8.91-26-8.12-29.69h0c.65-2.69,1.84-3.38,1.84-3.38,1.33-.79,3.49-.6,6.26.55,0,0,17.21,7.49,17.36,7.52a13.37,13.37,0,0,0,5.13,1c3.93,0,6.65-1.05,8.94-5.66C115.18,14,124.1,3.85,128.53,4.47c2.7.37,3.31,5.63,3.31,12.19,0,2.68-.1,5.57-.2,8.44,0,0-.15,4.52-.15,4.66-.12,4.19.76,9.53,12.65,13.05A82,82,0,0,1,155.73,47c4.32,2.1,5.16,3.74,5.29,4.53a2.45,2.45,0,0,1,0,.27,6.13,6.13,0,0,1-4.79,5.48s-1.66.34-1.77,1c0,0-.22.86,1.49,1.49,3.69,1.08,6.94-2.3,6.94-2.3,2-2.21,2.84-4.4,2.49-6.65-.94-6.13-10.4-9.42-20-12.26s-9.56-6.69-9.47-8.86v0s.16-4.49.16-4.49c.21-6.06.42-11.79-.21-16.09C135.59,7.1,134.7.84,129.15.07c-3.7-.51-8,1.91-12.91,7.22a66.62,66.62,0,0,0-9.59,13.88c-1.07,2.12-2,3.16-4.87,3.22a9.09,9.09,0,0,1-3.46-.66c-3.79-1.83-11.15-5-16.66-7.27L81,16.15c-4.26-1.76-7.74-1.83-10.38-.23-3.2,1.94-3.89,6.49-3.89,6.49-1,4.71,1.44,18.12,9.89,32.26,0,0,1,1.58,2.27,1C80.57,54.85,79.2,52.81,79.2,52.81Z"/>
  <path class="cls-3" d="M53.94,45.5c-1.23-.57-1.48-.47-1.48-.47a1.41,1.41,0,0,0-1.34,1.75,2.44,2.44,0,0,0,.25.7,10.54,10.54,0,0,0,.71,1,23.23,23.23,0,0,1,5.08,8.37,24.78,24.78,0,0,1,1.39,10.65,4.22,4.22,0,0,0-.08,1.47,3.36,3.36,0,0,0,3.12,2.85,2.22,2.22,0,0,0,2.22-2.29,41.61,41.61,0,0,0-.81-11C60.44,48.65,53.94,45.5,53.94,45.5Z"/>
  <path class="cls-3" d="M107.54,90.07a.39.39,0,0,0,.23.07c.33,0,.6-.37.6-.83a1,1,0,0,0-.21-.64s-3.23-6-11.7-6.28C88.22,82.15,83.62,89,83.62,89a3.19,3.19,0,0,0-.51,1.77c0,1.39.79,2.53,1.78,2.53a1.65,1.65,0,0,0,1.34-.81s4.27-5.13,10.4-5.13A24.2,24.2,0,0,1,107.54,90.07Z"/>
  <path class="cls-3" d="M99.1,130.35c.11-.67-.44-1-1-1a1.85,1.85,0,0,0-1,.43c-13.45,11.34-33.08,3.65-33.08,3.65A59.41,59.41,0,0,1,46,122.58c-4.35-3.92-14.44-14.37-14.22-26.53a15.64,15.64,0,0,1,4.59-12,14.84,14.84,0,0,1,11.43-4.39h0a26.65,26.65,0,0,1,11,2.66l.66.29a34.54,34.54,0,0,1,9.72,6.59h0c3.6,2.88,7.54,9.06,7.72,14.84a9.65,9.65,0,0,1-3,7.7c-2.37,2-5.85,2.56-9.8,1.54-5.8-1.49-11.49-6-13.24-10.52-1.71-4.31-.6-6.46.64-7.52a6.52,6.52,0,0,1,7.12-.38l0,0,0,0c4.18,1.69,6.71,5.2,7,7.64l0,.27a2.25,2.25,0,0,1-1.12,2.23h0l0,0c-1.23,1-3.89.61-5.77-.32a6.52,6.52,0,0,1-2.71-2.29l0,0a.57.57,0,0,0-.8-.28.63.63,0,0,0-.26.84,7.68,7.68,0,0,0,2.14,3.13,8.37,8.37,0,0,0,9.18,2.47,5.77,5.77,0,0,0,3.48-3.52,9.52,9.52,0,0,0,.54-4.37A7.93,7.93,0,0,0,69.56,98v0h0C68,94.45,65.15,91.66,61,89.7h0l-.39-.14a12.71,12.71,0,0,0-10.49-.09,9.33,9.33,0,0,0-4.89,5.86,12.79,12.79,0,0,0,.69,9.87c2.18,5.12,6.49,9.25,12.81,12.27,2.62,1.22,11.7,4.71,18.88-1.34,3.66-3.27,5.49-8.56,4.9-14.15a17.44,17.44,0,0,0-1-4.37A31.61,31.61,0,0,0,73,85a39.39,39.39,0,0,0-11.18-7.6L61,77.08A31,31,0,0,0,48,74c-5.92.08-10.82,1.8-14.56,5.09-4.44,3.58-7.19,10.1-7.16,17-.06,10.67,5.37,21.07,16.14,30.92,7.82,6.82,17.2,10.07,21.21,11.46,0,0,18.72,6.31,34.81-7.08A2.15,2.15,0,0,0,99.1,130.35Z"/>
  <path class="cls-3" d="M69.15,75.16c2.66,1.57,3.43-.88,3.43-.88,2-6.89,10.77-12,10.77-12a2.24,2.24,0,0,0,.44-3.5,2.76,2.76,0,0,0-3.45-.36,25.23,25.23,0,0,0-11.5,14S68,74.49,69.15,75.16Z"/>
  <path class="cls-4" d="M174,91v0c-.13-.87-3.31-21.24-13.5-27.38a12.28,12.28,0,0,0-10.84-1c-7,2.44-11.53,8.46-14.44,14.9a46.47,46.47,0,0,1,10,29.17,47.1,47.1,0,0,1-6.91,24.81A84.09,84.09,0,0,0,162.44,130a84.62,84.62,0,0,0,7.78-30.64c.09,1.9.16,4.08.16,6.47a114.89,114.89,0,0,1-2.65,25.24.7.7,0,0,0,0,.12v0a5.71,5.71,0,0,1-4.82,4.31c-5.32,1-21.44.74-48.25-6.23,0,0-41.94-11.5-20.28-32.53,0,0,2-1.83,2.07-1.94s.15-.22,0-.41-.38-.09-.38-.09a24.5,24.5,0,0,0-2.66,1.76c-12,8.7-6.29,20.16-6.29,20.16,6,12.8,31.32,18.6,31.32,18.6,24.64,5.92,39.9,6,45.2,5.05a10.16,10.16,0,0,0,8.4-7.82,119.07,119.07,0,0,0,2.78-26.21A122.52,122.52,0,0,0,174,91ZM143.51,73.67h0a21.34,21.34,0,0,0-1.87,1.21c2.33-3.67,5.42-6.71,9.48-8.12a8,8,0,0,1,7.1.59c2.7,1.64,4.92,4.87,6.62,8.51C159.62,70,150.92,69.48,143.51,73.67Z"/>
  <path class="cls-5" d="M135.22,77.46a64.36,64.36,0,0,0-4.69,17.19c-.08.59-.14,1.14-.2,1.62a6.72,6.72,0,0,1-.55,1.75,2.24,2.24,0,0,1-1.8,1.22c-1.76.12-3.41-2.2-3.41-2.2A15.43,15.43,0,0,0,97.63,107.3s-.26,11.75,19.1,19a75.15,75.15,0,0,0,8.1,2.72,74.19,74.19,0,0,0,13.47,2.42,47.1,47.1,0,0,0,6.91-24.81A46.47,46.47,0,0,0,135.22,77.46Z"/></g>
  </g>
</svg>